<svg width="55" height="37" viewBox="0 0 55 37" fill="none" xmlns="http://www.w3.org/2000/svg">
<path d="M3 16C1.61929 16 0.5 17.1193 0.5 18.5C0.5 19.8807 1.61929 21 3 21V16ZM53.7678 20.2678C54.7441 19.2915 54.7441 17.7085 53.7678 16.7322L37.8579 0.82233C36.8816 -0.15398 35.2986 -0.15398 34.3223 0.82233C33.346 1.79864 33.346 3.38155 34.3223 4.35786L48.4645 18.5L34.3223 32.6421C33.346 33.6184 33.346 35.2014 34.3223 36.1777C35.2986 37.154 36.8816 37.154 37.8579 36.1777L53.7678 20.2678ZM3 21H52V16H3V21Z" fill="black"/>
</svg>
